<svg width="28" height="66" viewBox="0 0 28 66" fill="none" xmlns="http://www.w3.org/2000/svg">
<path d="M27.5433 0.959846L23.4608 0.957672L23.4586 5.04015L27.5411 5.04233L27.5433 0.959846ZM0.474792 64.6387C0.474792 64.9148 0.69865 65.1387 0.974792 65.1387C1.25093 65.1387 1.47479 64.9148 1.47479 64.6387H0.474792ZM25.1476 2.64626L5.31375 22.459L6.02048 23.1665L25.8543 3.35374L25.1476 2.64626ZM0.474792 34.1325V64.6387H1.47479V34.1325H0.474792ZM5.31375 22.459C2.2156 25.5538 0.474792 29.7533 0.474792 34.1325H1.47479C1.47479 30.0187 3.11009 26.0738 6.02048 23.1665L5.31375 22.459Z" fill="#C0C0C0"/>
</svg>
