<svg width="111" height="66" viewBox="0 0 111 66" fill="none" xmlns="http://www.w3.org/2000/svg">
<path d="M51.5433 65.0402L47.4608 65.0423L47.4586 60.9598L51.5411 60.9577L51.5433 65.0402ZM24.4748 1.36133C24.4748 1.08519 24.6987 0.861328 24.9748 0.861328C25.2509 0.861328 25.4748 1.08519 25.4748 1.36133H24.4748ZM49.1476 63.3537L29.3138 43.541L30.0205 42.8335L49.8543 62.6463L49.1476 63.3537ZM24.4748 31.8675V1.36133H25.4748V31.8675H24.4748ZM29.3138 43.541C26.2156 40.4462 24.4748 36.2467 24.4748 31.8675H25.4748C25.4748 35.9813 27.1101 39.9262 30.0205 42.8335L29.3138 43.541Z" fill="#C0C0C0"/>
</svg>
